<svg width="19" height="21" viewBox="0 0 19 21" fill="none" xmlns="http://www.w3.org/2000/svg">
<path fill-rule="evenodd" clip-rule="evenodd" d="M14.0661 1.34031C14.0202 0.999773 13.7306 0.737305 13.3801 0.737305C12.9977 0.737305 12.6878 1.04966 12.6878 1.43498V2.20632H6.6156V1.43498L6.60928 1.34031C6.56344 0.999773 6.27378 0.737305 5.92329 0.737305C5.54094 0.737305 5.23099 1.04966 5.23099 1.43498V2.22365C2.39401 2.41904 0.647461 4.25723 0.647461 7.22309V15.6414C0.647461 18.8245 2.6058 20.7373 5.74372 20.7373H13.5511C16.6928 20.7373 18.6474 18.8566 18.6474 15.7117V7.22309C18.6564 4.25617 16.9155 2.41849 14.0724 2.22357V1.43498L14.0661 1.34031ZM12.6878 3.60167V4.49617L12.6941 4.59084C12.7399 4.93138 13.0296 5.19384 13.3801 5.19384C13.7624 5.19384 14.0724 4.88148 14.0724 4.49617V3.6223C16.1409 3.7944 17.2694 5.04004 17.2628 7.22095V7.62498H2.03207V7.22309C2.03207 5.04356 3.16671 3.79528 5.23099 3.62243V4.49617L5.23731 4.59084C5.28315 4.93138 5.57281 5.19384 5.92329 5.19384C6.30564 5.19384 6.6156 4.88148 6.6156 4.49617V3.60167H12.6878ZM2.03207 9.02033V15.6414C2.03207 18.044 3.36098 19.342 5.74372 19.342H13.5511C15.942 19.342 17.2628 18.0711 17.2628 15.7117L17.2628 9.02033H2.03207ZM14.4486 11.9556C14.4486 11.5703 14.1387 11.2579 13.7563 11.2579L13.6538 11.2643C13.3159 11.3105 13.0555 11.6024 13.0555 11.9556C13.0555 12.3409 13.3654 12.6533 13.7563 12.6533L13.8503 12.6469C14.1882 12.6007 14.4486 12.3088 14.4486 11.9556ZM9.66024 11.2579C10.0426 11.2579 10.3525 11.5703 10.3525 11.9556C10.3525 12.3088 10.0921 12.6007 9.75418 12.6469L9.66024 12.6533C9.26934 12.6533 8.95938 12.3409 8.95938 11.9556C8.95938 11.6024 9.21983 11.3105 9.55774 11.2643L9.66024 11.2579ZM6.24789 11.9556C6.24789 11.5703 5.93793 11.2579 5.55558 11.2579L5.45309 11.2643C5.11518 11.3105 4.85473 11.6024 4.85473 11.9556C4.85473 12.3409 5.16468 12.6533 5.54703 12.6533L5.64953 12.6469C5.98744 12.6007 6.24789 12.3088 6.24789 11.9556ZM13.7563 14.8733C14.1387 14.8733 14.4486 15.1857 14.4486 15.571C14.4486 15.9242 14.1882 16.2161 13.8503 16.2623L13.7563 16.2687C13.3654 16.2687 13.0555 15.9563 13.0555 15.571C13.0555 15.2178 13.3159 14.9259 13.6538 14.8797L13.7563 14.8733ZM10.3525 15.571C10.3525 15.1857 10.0426 14.8733 9.66024 14.8733L9.55774 14.8797C9.21983 14.9259 8.95938 15.2178 8.95938 15.571C8.95938 15.9563 9.26934 16.2687 9.66024 16.2687L9.75418 16.2623C10.0921 16.2161 10.3525 15.9242 10.3525 15.571ZM5.55558 14.8733C5.93793 14.8733 6.24789 15.1857 6.24789 15.571C6.24789 15.9242 5.98744 16.2161 5.64953 16.2623L5.54703 16.2687C5.16468 16.2687 4.85473 15.9563 4.85473 15.571C4.85473 15.2178 5.11518 14.9259 5.45309 14.8797L5.55558 14.8733Z" fill="#B8B9BC"/>
</svg>
