<svg width="18" height="21" viewBox="0 0 18 21" fill="none" xmlns="http://www.w3.org/2000/svg">
<path fill-rule="evenodd" clip-rule="evenodd" d="M9.63442 14.7533L12.476 11.8833C12.7631 11.5833 12.7631 11.1133 12.4661 10.8233C12.179 10.5333 11.7136 10.5333 11.4265 10.8233L9.85224 12.4233V7.60328C9.85224 7.18328 9.52551 6.85328 9.11957 6.85328C8.71363 6.85328 8.377 7.18328 8.377 7.60328V12.4233L6.80274 10.8233C6.51561 10.5333 6.05026 10.5333 5.76313 10.8233C5.47601 11.1133 5.47601 11.5833 5.76313 11.8833L8.59482 14.7533C8.66413 14.8233 8.74333 14.8733 8.83244 14.9133C8.92155 14.9533 9.02056 14.9733 9.11957 14.9733C9.21858 14.9733 9.30769 14.9533 9.3968 14.9133C9.48591 14.8733 9.56511 14.8233 9.63442 14.7533ZM16.8091 7.13889C17.0419 7.13621 17.2953 7.13328 17.5255 7.13328C17.7829 7.13328 17.981 7.33328 17.981 7.58328V15.6233C17.981 18.1033 15.981 20.1133 13.5255 20.1133H5.65422C3.07007 20.1133 0.980957 18.0033 0.980957 15.4033V4.62328C0.980957 2.14328 2.97106 0.113281 5.4463 0.113281H10.7334C10.981 0.113281 11.1889 0.323281 11.1889 0.573281V3.79328C11.1889 5.62328 12.674 7.12328 14.4958 7.13328C14.9143 7.13328 15.2887 7.13646 15.6156 7.13923C15.8688 7.14138 16.0934 7.14328 16.2879 7.14328C16.4288 7.14328 16.6115 7.14117 16.8091 7.13889ZM17.0854 5.67938C16.2725 5.68238 15.3131 5.67938 14.623 5.67238C13.528 5.67238 12.626 4.76138 12.626 3.65538V1.01938C12.626 0.588381 13.1438 0.374381 13.4389 0.685381C14.2013 1.48527 15.3683 2.71108 16.3548 3.74724C16.7545 4.16707 17.1245 4.55577 17.426 4.87238C17.7151 5.17538 17.5032 5.67838 17.0854 5.67938Z" fill="#2188D9"/>
</svg>
