<svg width="20" height="21" viewBox="0 0 20 21" fill="none" xmlns="http://www.w3.org/2000/svg">
<path fill-rule="evenodd" clip-rule="evenodd" d="M9.61154 0.918945C4.30323 0.918945 0 5.12714 0 10.3182C0 15.5093 4.30323 19.7175 9.61154 19.7175C11.8819 19.7175 13.9684 18.9477 15.613 17.6605L18.7371 20.7076L18.8202 20.7776C19.1102 20.9875 19.5214 20.9636 19.7839 20.7063C20.0726 20.4232 20.072 19.9649 19.7825 19.6826L16.6952 16.6713C18.2649 14.9983 19.2231 12.7677 19.2231 10.3182C19.2231 5.12714 14.9198 0.918945 9.61154 0.918945ZM9.61154 2.36668C14.1022 2.36668 17.7426 5.9267 17.7426 10.3182C17.7426 14.7097 14.1022 18.2697 9.61154 18.2697C5.12086 18.2697 1.48044 14.7097 1.48044 10.3182C1.48044 5.9267 5.12086 2.36668 9.61154 2.36668Z" fill="#B8B9BC"/>
</svg>
